<svg width="16" height="16" viewBox="0 0 16 16" fill="none" xmlns="http://www.w3.org/2000/svg">
<g clip-path="url(#clip0_2_3418)">
<path d="M13.3333 6.66667V5.33333C13.3333 3.91885 12.7714 2.56229 11.7712 1.5621C10.771 0.561903 9.41445 0 7.99996 0C6.58547 0 5.22892 0.561903 4.22872 1.5621C3.22853 2.56229 2.66663 3.91885 2.66663 5.33333V6.66667C2.65025 7.07331 2.55022 7.47222 2.37277 7.83847C2.19532 8.20472 1.94427 8.53045 1.63529 8.79533C1.08009 9.26842 0.732349 9.94021 0.666626 10.6667C0.666626 12.3333 3.40796 13.3333 7.99996 13.3333C12.592 13.3333 15.3333 12.3333 15.3333 10.6667C15.2676 9.94021 14.9198 9.26842 14.3646 8.79533C14.0556 8.53045 13.8046 8.20472 13.6271 7.83847C13.4497 7.47222 13.3497 7.07331 13.3333 6.66667Z" fill="white"/>
<path d="M6.09668 14.6C6.22374 15.0053 6.47688 15.3595 6.81922 15.611C7.16157 15.8624 7.57524 15.998 8.00001 15.998C8.42478 15.998 8.83846 15.8624 9.1808 15.611C9.52315 15.3595 9.77628 15.0053 9.90335 14.6C9.30735 14.644 8.67401 14.6667 8.00001 14.6667C7.32601 14.6667 6.69268 14.6453 6.09668 14.6Z" fill="white"/>
</g>
<defs>
<clipPath id="clip0_2_3418">
<rect width="16" height="16" fill="white"/>
</clipPath>
</defs>
</svg>
